<svg xmlns="http://www.w3.org/2000/svg" xmlns:xlink="http://www.w3.org/1999/xlink" width="20" height="20" viewBox="0 0 20 20">
  <defs>
    <clipPath id="clip-path">
      <rect id="Rectangle_149292" data-name="Rectangle 149292" width="20" height="20" transform="translate(532 434)" fill="#4a4a4a" stroke="#4a5664" stroke-width="1"/>
    </clipPath>
  </defs>
  <g id="Mask_Group_488" data-name="Mask Group 488" transform="translate(-532 -434)" clip-path="url(#clip-path)">
    <g id="svgexport-17_17_" data-name="svgexport-17 (17)" transform="translate(531.262 433.262)">
      <path id="Path_85402" data-name="Path 85402" d="M10.738,7.9A4.463,4.463,0,1,0,15.2,12.359,4.468,4.468,0,0,0,10.738,7.9Zm0,7.718a3.255,3.255,0,1,1,3.255-3.255A3.259,3.259,0,0,1,10.738,15.614Zm6.229-7.94a.777.777,0,1,0,.777.777A.777.777,0,0,0,16.967,7.674Z" fill="#4a4a4a"/>
      <path id="Path_85403" data-name="Path 85403" d="M18.121,5.057H15.337l-.673-1.626a2.611,2.611,0,0,0-2.419-1.616H9.232A2.608,2.608,0,0,0,6.813,3.432L6.14,5.057H3.356A2.621,2.621,0,0,0,.738,7.674v9.369a2.621,2.621,0,0,0,2.617,2.617H18.121a2.621,2.621,0,0,0,2.617-2.617V7.674a2.621,2.621,0,0,0-2.617-2.617ZM19.53,17.044a1.411,1.411,0,0,1-1.409,1.409H3.356a1.411,1.411,0,0,1-1.409-1.409V7.674A1.411,1.411,0,0,1,3.356,6.265H6.544A.6.6,0,0,0,7.1,5.892l.828-2a1.4,1.4,0,0,1,1.3-.87h3.013a1.4,1.4,0,0,1,1.3.87l.828,2a.6.6,0,0,0,.558.373h3.189A1.411,1.411,0,0,1,19.53,7.674Z" fill="#4a4a4a"/>
      <path id="Path_85404" data-name="Path 85404" d="M9.69,5.554h2.1a.6.6,0,0,0,0-1.208H9.69a.6.6,0,0,0,0,1.208Z" fill="#4a4a4a"/>
    </g>
  </g>
</svg>
