<svg xmlns="http://www.w3.org/2000/svg" xmlns:xlink="http://www.w3.org/1999/xlink" width="40" height="62" viewBox="0 0 40 62">
  <defs>
    <clipPath id="clip-path">
      <rect id="Rectangle_149304" data-name="Rectangle 149304" width="40" height="40" transform="translate(34 12)" fill="#4a5664" stroke="#4a5664" stroke-width="1"/>
    </clipPath>
  </defs>
  <g id="Group_164913" data-name="Group 164913" transform="translate(-34 -12)">
    <text id="Scan" transform="translate(54 70)" fill="#4a5664" font-size="15" font-family="Rubik-Medium, Rubik" font-weight="500"><tspan x="-18" y="0">Scan</tspan></text>
    <g id="Mask_Group_491" data-name="Mask Group 491" clip-path="url(#clip-path)">
      <path id="qr" d="M14.167,6.667H10.833a4.172,4.172,0,0,0-4.167,4.167v3.333a4.172,4.172,0,0,0,4.167,4.167h3.333a4.172,4.172,0,0,0,4.167-4.167V10.833A4.172,4.172,0,0,0,14.167,6.667Zm.833,7.5a.834.834,0,0,1-.833.833H10.833A.834.834,0,0,1,10,14.167V10.833A.834.834,0,0,1,10.833,10h3.333a.834.834,0,0,1,.833.833Zm10.833,4.167h3.333a4.172,4.172,0,0,0,4.167-4.167V10.833a4.172,4.172,0,0,0-4.167-4.167H25.833a4.172,4.172,0,0,0-4.167,4.167v3.333A4.172,4.172,0,0,0,25.833,18.333ZM25,10.833A.834.834,0,0,1,25.833,10h3.333a.834.834,0,0,1,.833.833v3.333a.834.834,0,0,1-.833.833H25.833A.834.834,0,0,1,25,14.167ZM14.167,21.667H10.833a4.172,4.172,0,0,0-4.167,4.167v3.333a4.172,4.172,0,0,0,4.167,4.167h3.333a4.172,4.172,0,0,0,4.167-4.167V25.833A4.172,4.172,0,0,0,14.167,21.667Zm.833,7.5a.834.834,0,0,1-.833.833H10.833A.834.834,0,0,1,10,29.167V25.833A.834.834,0,0,1,10.833,25h3.333a.834.834,0,0,1,.833.833Zm-1.667,9.167A1.667,1.667,0,0,1,11.667,40H8.333A8.343,8.343,0,0,1,0,31.667V28.333a1.667,1.667,0,0,1,3.333,0v3.333a5.006,5.006,0,0,0,5,5h3.333A1.667,1.667,0,0,1,13.333,38.333ZM40,28.333v3.333A8.343,8.343,0,0,1,31.667,40H28.333a1.667,1.667,0,0,1,0-3.333h3.333a5.006,5.006,0,0,0,5-5V28.333a1.667,1.667,0,0,1,3.333,0Zm0-20v3.333a1.667,1.667,0,0,1-3.333,0V8.333a5.006,5.006,0,0,0-5-5H28.333a1.667,1.667,0,0,1,0-3.333h3.333A8.343,8.343,0,0,1,40,8.333ZM0,11.667V8.333A8.343,8.343,0,0,1,8.333,0h3.333a1.667,1.667,0,1,1,0,3.333H8.333a5.006,5.006,0,0,0-5,5v3.333a1.667,1.667,0,1,1-3.333,0ZM26.667,30.833a2.5,2.5,0,1,1-2.5-2.5A2.5,2.5,0,0,1,26.667,30.833Zm4.167-9.167a2.5,2.5,0,1,1-2.5,2.5A2.5,2.5,0,0,1,30.833,21.667Zm-9.167,2.5a2.5,2.5,0,1,1,2.5,2.5A2.5,2.5,0,0,1,21.667,24.167Z" transform="translate(34 12)" fill="#4a5664"/>
    </g>
  </g>
</svg>
