<svg xmlns="http://www.w3.org/2000/svg" xmlns:xlink="http://www.w3.org/1999/xlink" width="62" height="62" viewBox="0 0 62 62">
  <defs>
    <clipPath id="clip-path">
      <rect id="Rectangle_149304" data-name="Rectangle 149304" width="40" height="40" transform="translate(34 12)" fill="#4a5664" stroke="#4a5664" stroke-width="1"/>
    </clipPath>
  </defs>
  <g id="Group_164910" data-name="Group 164910" transform="translate(-23 -12)">
    <text id="Settings" transform="translate(54 70)" fill="#4a5664" font-size="15" font-family="Rubik-Medium, Rubik" font-weight="500"><tspan x="-30" y="0">Settings</tspan></text>
    <g id="Mask_Group_493" data-name="Mask Group 493" clip-path="url(#clip-path)">
      <g id="settings-2" data-name="settings" transform="translate(34 12)">
        <path id="Path_85436" data-name="Path 85436" d="M20,13.333A6.667,6.667,0,1,0,26.667,20,6.667,6.667,0,0,0,20,13.333Zm0,10A3.333,3.333,0,1,1,23.333,20,3.333,3.333,0,0,1,20,23.333Z" fill="#4a5664"/>
        <path id="Path_85437" data-name="Path 85437" d="M35.49,23.167l-.74-.427a15.167,15.167,0,0,0,0-5.483l.74-.427a5,5,0,1,0-5-8.667l-.742.428A14.962,14.962,0,0,0,25,5.855V5A5,5,0,1,0,15,5v.855A14.962,14.962,0,0,0,10.253,8.6l-.745-.432a5,5,0,1,0-5,8.667l.74.427a15.167,15.167,0,0,0,0,5.483l-.74.427a5,5,0,0,0,5,8.667l.742-.428A14.962,14.962,0,0,0,15,34.145V35a5,5,0,0,0,10,0v-.855A14.962,14.962,0,0,0,29.747,31.4l.745.43a5,5,0,1,0,5-8.667Zm-4.247-6.293a11.747,11.747,0,0,1,0,6.25,1.667,1.667,0,0,0,.773,1.888l1.807,1.043a1.667,1.667,0,1,1-1.667,2.888L30.347,27.9a1.667,1.667,0,0,0-2.025.275,11.64,11.64,0,0,1-5.4,3.125,1.667,1.667,0,0,0-1.252,1.615V35a1.667,1.667,0,0,1-3.333,0V32.913A1.667,1.667,0,0,0,17.08,31.3a11.64,11.64,0,0,1-5.4-3.132,1.667,1.667,0,0,0-2.025-.275L7.845,28.937A1.667,1.667,0,1,1,6.178,26.05l1.807-1.043a1.667,1.667,0,0,0,.773-1.888,11.747,11.747,0,0,1,0-6.25,1.667,1.667,0,0,0-.775-1.882L6.177,13.943a1.667,1.667,0,0,1,1.667-2.888L9.653,12.1a1.667,1.667,0,0,0,2.023-.268,11.64,11.64,0,0,1,5.405-3.125,1.667,1.667,0,0,0,1.252-1.622V5a1.667,1.667,0,1,1,3.333,0V7.087A1.667,1.667,0,0,0,22.918,8.7a11.64,11.64,0,0,1,5.4,3.132,1.667,1.667,0,0,0,2.025.275l1.807-1.045a1.667,1.667,0,1,1,1.667,2.887l-1.807,1.043a1.667,1.667,0,0,0-.772,1.882Z" fill="#4a5664"/>
      </g>
    </g>
  </g>
</svg>
